<?xml version="1.0" encoding="UTF-8" standalone="no"?>
<svg
   xmlns:dc="http://purl.org/dc/elements/1.1/"
   xmlns:cc="http://creativecommons.org/ns#"
   xmlns:rdf="http://www.w3.org/1999/02/22-rdf-syntax-ns#"
   xmlns:svg="http://www.w3.org/2000/svg"
   xmlns="http://www.w3.org/2000/svg"
   xmlns:sodipodi="http://sodipodi.sourceforge.net/DTD/sodipodi-0.dtd"
   xmlns:inkscape="http://www.inkscape.org/namespaces/inkscape"
   viewBox="0 0 62.422 63.27"
   version="1.1"
   id="svg90"
   sodipodi:docname="bitbucket.svg"
   width="62.422001"
   height="63.27"
   inkscape:version="0.92.2 (5c3e80d, 2017-08-06)">
  <metadata
     id="metadata94">
    <rdf:RDF>
      <cc:Work
         rdf:about="">
        <dc:format>image/svg+xml</dc:format>
        <dc:type
           rdf:resource="http://purl.org/dc/dcmitype/StillImage" />
        <dc:title>Bitbucket-blue</dc:title>
      </cc:Work>
    </rdf:RDF>
  </metadata>
  <sodipodi:namedview
     pagecolor="#ffffff"
     bordercolor="#666666"
     borderopacity="1"
     objecttolerance="10"
     gridtolerance="10"
     guidetolerance="10"
     inkscape:pageopacity="0"
     inkscape:pageshadow="2"
     inkscape:window-width="1366"
     inkscape:window-height="745"
     id="namedview92"
     showgrid="false"
     inkscape:zoom="1.9394268"
     inkscape:cx="221.715"
     inkscape:cy="31.635"
     inkscape:window-x="1432"
     inkscape:window-y="127"
     inkscape:window-maximized="1"
     inkscape:current-layer="svg90" />
  <defs
     id="defs60">
    <style
       id="style53">.cls-1{fill:#253858;}.cls-2{fill:none;}.cls-3{fill:#2684ff;}.cls-4{fill:url(#New_Gradient_Swatch_1);}</style>
    <linearGradient
       id="New_Gradient_Swatch_1"
       x1="64.010002"
       y1="30.27"
       x2="32.990002"
       y2="54.48"
       gradientUnits="userSpaceOnUse">
      <stop
         offset="0.18"
         stop-color="#0052cc"
         id="stop55" />
      <stop
         offset="1"
         stop-color="#2684ff"
         id="stop57" />
    </linearGradient>
  </defs>
  <title
     id="title62">Bitbucket-blue</title>
  <g
     id="Layer_2"
     data-name="Layer 2">
    <g
       id="Blue">
      <polygon
         class="cls-2"
         points="40.9,25.12 21.23,25.12 24.7,43.51 37.75,43.51 "
         id="polygon82"
         style="fill:none" />
      <path
         class="cls-3"
         d="M 2,6.26 A 2,2 0 0 0 0,8.58 l 8.49,51.54 a 2.72,2.72 0 0 0 2.66,2.27 h 40.73 a 2,2 0 0 0 2,-1.68 L 62.37,8.59 a 2,2 0 0 0 -2,-2.32 z m 35.75,37.25 h -13 L 21.23,25.12 H 40.9 Z"
         id="path84"
         inkscape:connector-curvature="0"
         style="fill:#2684ff" />
      <path
         class="cls-4"
         d="M 59.67,25.12 H 40.9 l -3.15,18.39 h -13 L 9.4,61.73 a 2.71,2.71 0 0 0 1.75,0.66 h 40.74 a 2,2 0 0 0 2,-1.68 z"
         id="path86"
         inkscape:connector-curvature="0"
         style="fill:url(#New_Gradient_Swatch_1)" />
    </g>
  </g>
</svg>
