<?xml version="1.0" encoding="utf-8"?>
<!-- Generator: Adobe Illustrator 13.0.0, SVG Export Plug-In  -->
<!DOCTYPE svg PUBLIC "-//W3C//DTD SVG 1.1//EN" "http://www.w3.org/Graphics/SVG/1.1/DTD/svg11.dtd" [
	<!ENTITY ns_flows "http://ns.adobe.com/Flows/1.0/">
]>
<svg version="1.1"
	 xmlns="http://www.w3.org/2000/svg" xmlns:xlink="http://www.w3.org/1999/xlink" xmlns:a="http://ns.adobe.com/AdobeSVGViewerExtensions/3.0/"
	 x="0px" y="0px" width="186px" height="40px" viewBox="0.036 0.189 186 40" enable-background="new 0.036 0.189 186 40"
	 xml:space="preserve">
<defs>
</defs>
<path fill="#369647" d="M24.997,0c-1.454,0-2.82,0.188-4.186,0.581c7.092,1.846,12.353,8.167,12.455,15.754c0,0.102,0,0.204,0,0.291
	c0,0.102,0,0.203,0,0.291c-0.189,4.476-3.793,8.08-8.269,8.08c-1.555,0-2.921-0.393-4.186-1.075
	c-2.529-1.453-4.186-4.084-4.186-7.194s1.657-5.741,4.186-7.194c-1.163-0.683-2.617-1.076-4.186-1.076
	c-4.477,0-8.168,3.604-8.255,8.081c0,0.087,0,0.189,0,0.291c0,0.087,0,0.189,0,0.291c0.087,7.587,5.348,14.011,12.44,15.755
	c1.366,0.377,2.732,0.581,4.186,0.581c9.141,0,16.626-7.484,16.626-16.626C41.623,7.673,34.138,0,24.997,0z"/>
<path fill="#AEEA00" d="M33.266,16.335c-0.102-7.586-5.362-14.01-12.455-15.754C19.445,0.188,18.079,0,16.626,0
	C7.484,0,0,7.484,0,16.626c0,9.156,7.484,16.64,16.626,16.64c1.453,0,2.819-0.188,4.186-0.596
	c-7.092-1.831-12.354-8.167-12.44-15.754c0-0.087,0-0.189,0-0.291c0-0.087,0-0.189,0-0.291c0.188-4.476,3.778-8.08,8.255-8.08
	c1.569,0,2.921,0.407,4.186,1.075c2.528,1.453,4.186,4.099,4.186,7.208c0,3.11-1.657,5.727-4.186,7.194
	c1.163,0.683,2.63,1.061,4.186,1.061c4.476,0,8.167-3.591,8.269-8.066c0-0.102,0-0.189,0-0.291
	C33.266,16.539,33.266,16.437,33.266,16.335z"/>
<linearGradient id="SVGID_1_" gradientUnits="userSpaceOnUse" x1="1077.6035" y1="4081.2437" x2="1077.6035" y2="4588.854" gradientTransform="matrix(0.0654 0 0 0.0654 -53.7985 -266.6661)">
	<stop  offset="0" style="stop-color:#808080"/>
	<stop  offset="0.6" style="stop-color:#FFFFFF"/>
</linearGradient>
<path opacity="0.15" fill="url(#SVGID_1_)" enable-background="new    " d="M33.266,16.335c-0.102-7.586-5.362-14.01-12.455-15.754
	C19.445,0.188,18.079,0,16.626,0C7.484,0,0,7.484,0,16.626c0,9.156,7.484,16.64,16.626,16.64c1.453,0,2.819-0.188,4.186-0.596
	c-7.092-1.831-12.354-8.167-12.44-15.754c0-0.087,0-0.189,0-0.291c0-0.087,0-0.189,0-0.291c0.188-4.476,3.778-8.08,8.255-8.08
	c1.569,0,2.921,0.407,4.186,1.075c2.528,1.453,4.186,4.099,4.186,7.208c0,3.11-1.657,5.727-4.186,7.194
	c1.163,0.683,2.63,1.061,4.186,1.061c4.476,0,8.167-3.591,8.269-8.066c0-0.102,0-0.189,0-0.291
	C33.266,16.539,33.266,16.437,33.266,16.335z"/>
<linearGradient id="SVGID_2_" gradientUnits="userSpaceOnUse" x1="1205.5723" y1="4586.5327" x2="1205.5723" y2="4079.3564" gradientTransform="matrix(0.0654 0 0 0.0654 -53.7985 -266.6661)">
	<stop  offset="0" style="stop-color:#808080"/>
	<stop  offset="0.6" style="stop-color:#FFFFFF"/>
</linearGradient>
<path opacity="0.15" fill="url(#SVGID_2_)" enable-background="new    " d="M24.997,0c-1.454,0-2.82,0.188-4.186,0.581
	c7.092,1.846,12.353,8.167,12.455,15.754c0,0.102,0,0.204,0,0.291c0,0.102,0,0.203,0,0.291c-0.189,4.476-3.793,8.08-8.269,8.08
	c-1.555,0-2.921-0.393-4.186-1.075c-2.529-1.453-4.186-4.084-4.186-7.194s1.657-5.741,4.186-7.194
	c-1.163-0.683-2.617-1.076-4.186-1.076c-4.477,0-8.168,3.604-8.255,8.081c0,0.087,0,0.189,0,0.291c0,0.087,0,0.189,0,0.291
	c0.087,7.587,5.348,14.011,12.44,15.755c1.366,0.377,2.732,0.581,4.186,0.581c9.141,0,16.626-7.484,16.626-16.626
	C41.623,7.673,34.138,0,24.997,0z"/>
<linearGradient id="SVGID_3_" gradientUnits="userSpaceOnUse" x1="1012.8359" y1="4382.6313" x2="1099.2815" y2="4660.6118" gradientTransform="matrix(0.0654 0 0 0.0654 -53.7985 -266.6661)">
	<stop  offset="0" style="stop-color:#808080"/>
	<stop  offset="0.75" style="stop-color:#FFFFFF"/>
</linearGradient>
<path opacity="0.45" fill="url(#SVGID_3_)" enable-background="new    " d="M20.812,32.787c-7.092-1.86-12.354-8.183-12.44-15.769
	l0,0v0.102c0.087,6.424,2.412,12.251,6.017,16.146c0.784,0.102,1.569,0.189,2.238,0.189C18.079,33.266,19.445,33.078,20.812,32.787z
	"/>
<linearGradient id="SVGID_4_" gradientUnits="userSpaceOnUse" x1="961.4297" y1="4271.2183" x2="1211.0652" y2="4271.2183" gradientTransform="matrix(0.0654 0 0 0.0654 -53.7985 -266.6661)">
	<stop  offset="0" style="stop-color:#808080"/>
	<stop  offset="0.75" style="stop-color:#FFFFFF"/>
</linearGradient>
<path opacity="0.4" fill="url(#SVGID_4_)" enable-background="new    " d="M8.458,16.335c1.264-4.273,5.741-6.801,10.115-5.552
	c0.102,0,0.291,0.116,0.494,0.116c0.582-0.596,1.163-1.075,1.846-1.467c-1.177-0.684-2.63-1.061-4.186-1.061
	C12.149,8.371,8.458,11.859,8.458,16.335c0,0.102,0,0.204,0,0.291C8.371,16.539,8.371,16.437,8.458,16.335z"/>
<path fill="#616161" d="M55.051,26.159V7.194h5.348c1.163,0,2.239,0.189,3.212,0.581c0.974,0.392,1.846,0.974,2.631,1.759
	c0.668,0.77,1.25,1.656,1.657,2.717c0.377,1.061,0.581,2.238,0.581,3.59V17.6c0,1.264-0.204,2.529-0.581,3.603
	c-0.408,1.063-0.989,1.934-1.657,2.719c-0.683,0.785-1.657,1.366-2.631,1.744c-1.06,0.406-2.136,0.596-3.299,0.596L55.051,26.159
	L55.051,26.159z M56.708,8.56v16.234h3.604c1.061,0,1.933-0.189,2.718-0.582c0.771-0.378,1.555-0.871,2.136-1.452
	c0.581-0.581,1.076-1.454,1.366-2.326c0.291-0.886,0.48-1.86,0.48-2.935v-1.744c0-1.076-0.189-2.136-0.48-3.023
	c-0.291-0.872-0.785-1.643-1.366-2.238c-0.582-0.582-1.264-1.061-2.034-1.454c-0.785-0.377-1.657-0.581-2.733-0.581L56.708,8.56
	L56.708,8.56z"/>
<path fill="#616161" d="M70.428,18.864c0-1.075,0.087-1.947,0.48-2.819c0.291-0.872,0.683-1.657,1.264-2.238
	c0.581-0.582,1.163-1.075,2.035-1.454c0.785-0.392,1.656-0.581,2.63-0.581c0.974,0,1.846,0.189,2.63,0.581
	c0.785,0.378,1.454,0.872,2.035,1.454c0.581,0.581,0.988,1.366,1.279,2.238c0.29,0.872,0.479,1.86,0.479,2.819v0.494
	c0,1.075-0.102,1.947-0.479,2.82c-0.291,0.871-0.698,1.655-1.279,2.237c-0.582,0.581-1.163,1.075-2.035,1.453
	c-0.785,0.393-1.657,0.582-2.63,0.582c-0.974,0-1.845-0.189-2.63-0.582c-0.771-0.378-1.454-0.872-2.035-1.453
	c-0.582-0.582-0.974-1.366-1.264-2.237c-0.291-0.873-0.48-1.861-0.48-2.82V18.864L70.428,18.864z M71.969,19.358
	c0,0.771,0.102,1.555,0.29,2.238c0.204,0.669,0.581,1.25,0.989,1.846c0.377,0.581,0.872,0.974,1.453,1.265
	c0.582,0.29,1.265,0.479,2.035,0.479c0.785,0,1.468-0.188,2.049-0.479c0.582-0.291,1.061-0.684,1.468-1.265
	c0.377-0.596,0.668-1.177,0.958-1.846c0.204-0.684,0.292-1.468,0.292-2.238v-0.494c0-0.785-0.087-1.454-0.292-2.136
	c-0.188-0.683-0.581-1.366-0.958-1.846c-0.407-0.582-0.887-0.974-1.57-1.264c-0.582-0.306-1.25-0.48-2.035-0.48
	s-1.453,0.174-2.049,0.48c-0.582,0.29-1.061,0.77-1.453,1.264c-0.393,0.582-0.683,1.163-0.974,1.846
	c-0.203,0.683-0.291,1.468-0.291,2.136v0.494H71.969z"/>
<path fill="#616161" d="M94.538,24.314c-0.479,0.581-1.061,1.177-1.744,1.555c-0.785,0.393-1.657,0.582-2.718,0.582
	c-0.698,0-1.366-0.087-1.86-0.292c-0.581-0.188-1.076-0.493-1.453-0.974c-0.392-0.479-0.683-0.974-0.974-1.642
	c-0.291-0.697-0.291-1.57-0.291-2.441v-9.04h1.555v9.141c0,0.771,0.087,1.353,0.291,1.847c0.204,0.494,0.378,0.872,0.683,1.162
	c0.291,0.292,0.582,0.582,1.061,0.684c0.494,0.102,0.785,0.189,1.279,0.189c0.582,0,1.163-0.088,1.643-0.189
	c0.479-0.102,0.887-0.392,1.264-0.581c0.392-0.291,0.581-0.581,0.873-0.872c0.291-0.306,0.392-0.683,0.581-1.076V12.149h1.57v14.112
	h-1.57L94.538,24.314z"/>
<path fill="#616161" d="M110.889,19.256c0,1.061-0.103,2.049-0.393,2.922c-0.189,0.871-0.597,1.655-1.076,2.237
	c-0.479,0.581-1.061,1.075-1.642,1.453c-0.581,0.393-1.468,0.582-2.238,0.582c-1.076,0-1.947-0.189-2.731-0.582
	c-0.786-0.378-1.367-0.974-1.847-1.657v1.947h-1.468V6.132h1.569v7.964c0.48-0.668,1.075-1.264,1.745-1.656
	c0.683-0.378,1.655-0.582,2.629-0.582c0.873,0,1.644,0.203,2.341,0.494c0.668,0.378,1.25,0.785,1.642,1.454
	c0.479,0.581,0.785,1.366,1.076,2.238c0.189,0.872,0.393,1.86,0.393,3.023V19.256z M109.319,18.966c0-0.771-0.088-1.657-0.189-2.34
	c-0.188-0.669-0.394-1.367-0.771-1.846c-0.392-0.582-0.785-0.974-1.278-1.265c-0.581-0.291-1.163-0.494-1.832-0.494
	c-0.58,0-1.075,0.116-1.569,0.203c-0.479,0.204-0.871,0.393-1.162,0.582c-0.292,0.291-0.582,0.581-0.872,0.974
	c-0.291,0.392-0.394,0.683-0.582,1.061v6.424c0.188,0.392,0.378,0.697,0.582,1.075c0.29,0.29,0.58,0.581,0.872,0.871
	c0.291,0.292,0.683,0.495,1.162,0.582c0.494,0.102,0.989,0.203,1.468,0.203c0.684,0,1.353-0.102,1.847-0.493
	c0.58-0.292,0.974-0.67,1.264-1.251c0.392-0.596,0.581-1.177,0.771-1.86c0.203-0.668,0.203-1.453,0.203-2.325L109.319,18.966
	L109.319,18.966z"/>
<path fill="#616161" d="M115.161,26.159h-1.556V6.132h1.556V26.159z"/>
<path fill="#616161" d="M124.303,26.364c-0.974,0-1.744-0.205-2.529-0.582c-0.77-0.407-1.453-0.785-2.049-1.468
	c-0.581-0.684-0.96-1.352-1.25-2.136c-0.291-0.873-0.494-1.745-0.494-2.733v-0.581c0-1.075,0.203-2.136,0.494-2.907
	c0.29-0.887,0.771-1.657,1.366-2.238c0.581-0.582,1.163-1.076,1.933-1.468c0.683-0.392,1.556-0.479,2.34-0.479
	c0.872,0,1.657,0.189,2.428,0.479c0.684,0.291,1.264,0.771,1.758,1.367c0.48,0.581,0.873,1.264,1.076,2.049
	c0.175,0.77,0.378,1.642,0.378,2.616v0.974h-10.115v0.292c0,0.77,0.087,1.555,0.393,2.136c0.188,0.683,0.581,1.279,0.974,1.759
	c0.479,0.479,0.959,0.872,1.555,1.162c0.581,0.291,1.265,0.48,1.933,0.48c0.887,0,1.57-0.088,2.238-0.48
	c0.582-0.29,1.177-0.771,1.759-1.468l0.974,0.785c-0.203,0.393-0.495,0.683-0.785,0.974c-0.29,0.29-0.668,0.596-1.061,0.771
	c-0.392,0.203-0.887,0.406-1.367,0.596C125.479,26.364,124.898,26.364,124.303,26.364z M124.013,13.138
	c-0.582,0-1.163,0.087-1.644,0.378c-0.493,0.291-0.987,0.581-1.365,0.973c-0.393,0.393-0.684,0.975-0.974,1.556
	c-0.306,0.582-0.393,1.264-0.479,1.947h8.458v-0.203c0-0.582-0.103-1.163-0.291-1.744c-0.203-0.581-0.493-1.076-0.785-1.453
	c-0.392-0.495-0.784-0.785-1.265-1.076C125.189,13.225,124.607,13.138,124.013,13.138z"/>
<path fill="#616161" d="M146.088,20.23c-0.087,0.973-0.29,1.846-0.669,2.616c-0.392,0.784-0.784,1.468-1.365,1.947
	c-0.582,0.494-1.265,0.988-2.151,1.178c-0.872,0.188-1.744,0.479-2.819,0.479c-1.062,0-2.035-0.189-2.907-0.582
	c-0.872-0.378-1.656-0.974-2.237-1.744c-0.581-0.784-1.076-1.656-1.454-2.732c-0.406-1.075-0.494-2.238-0.494-3.487v-2.441
	c0-1.265,0.204-2.442,0.494-3.503c0.378-1.061,0.771-1.947,1.454-2.717c0.581-0.785,1.365-1.367,2.237-1.759
	c0.872-0.393,1.948-0.582,3.009-0.582c1.075,0,1.947,0.102,2.718,0.393c0.784,0.291,1.569,0.668,2.151,1.163
	c0.581,0.581,1.075,1.163,1.365,1.948c0.379,0.784,0.582,1.656,0.669,2.616h-1.656c-0.088-0.771-0.291-1.453-0.583-2.035
	c-0.29-0.581-0.58-1.076-1.06-1.555c-0.479-0.48-0.974-0.684-1.556-0.974c-0.581-0.203-1.365-0.291-2.15-0.291
	c-0.872,0-1.643,0.204-2.325,0.582c-0.684,0.392-1.265,0.872-1.745,1.453c-0.493,0.582-0.886,1.367-1.074,2.239
	c-0.291,0.872-0.393,1.86-0.393,2.921v2.427c0,1.075,0.102,2.049,0.393,2.936c0.188,0.872,0.581,1.642,1.074,2.238
	c0.48,0.581,1.062,1.162,1.745,1.541c0.683,0.392,1.453,0.581,2.325,0.581c1.656,0,2.936-0.378,3.808-1.163
	c0.871-0.785,1.366-2.035,1.541-3.604L146.088,20.23L146.088,20.23z"/>
<path fill="#616161" d="M150.665,26.159h-1.555V6.132h1.555V26.159z"/>
<path fill="#616161" d="M154.459,7.964c0-0.291,0.087-0.581,0.291-0.77c0.203-0.189,0.493-0.291,0.784-0.291
	s0.582,0.102,0.771,0.291c0.189,0.189,0.306,0.479,0.306,0.77c0,0.291-0.116,0.596-0.306,0.785
	c-0.188,0.204-0.479,0.291-0.771,0.291s-0.581-0.087-0.784-0.291C154.546,8.458,154.459,8.167,154.459,7.964z M156.305,26.159
	h-1.555V12.062h1.555V26.159z"/>
<path fill="#616161" d="M164.966,25.084c0.48,0,0.974-0.088,1.454-0.189c0.479-0.102,0.887-0.392,1.177-0.581
	c0.378-0.291,0.668-0.581,0.873-1.062c0.188-0.493,0.378-0.887,0.378-1.467h1.568c0,0.683-0.203,1.264-0.494,1.845
	c-0.29,0.581-0.668,1.076-1.162,1.454c-0.495,0.406-1.075,0.697-1.657,0.987c-0.58,0.189-1.366,0.379-2.034,0.379
	c-0.989,0-1.86-0.189-2.631-0.582c-0.771-0.378-1.366-0.872-1.846-1.555c-0.494-0.581-0.872-1.352-1.163-2.238
	c-0.29-0.873-0.406-1.759-0.406-2.718v-0.581c0-0.988,0.116-1.948,0.406-2.732c0.291-0.872,0.582-1.657,1.163-2.238
	c0.479-0.582,1.075-1.075,1.846-1.555c0.771-0.392,1.642-0.581,2.631-0.581c0.771,0,1.454,0.102,2.136,0.392
	c0.684,0.189,1.163,0.582,1.644,1.076c0.493,0.48,0.886,0.959,1.177,1.643c0.29,0.582,0.479,1.366,0.479,2.136h-1.452
	c0-0.582-0.203-1.076-0.393-1.555c-0.188-0.48-0.48-0.873-0.872-1.163c-0.393-0.291-0.771-0.581-1.264-0.77
	c-0.495-0.204-0.976-0.291-1.557-0.291c-0.769,0-1.555,0.174-2.049,0.48c-0.58,0.29-1.075,0.77-1.366,1.264
	c-0.377,0.582-0.581,1.163-0.771,1.846c-0.188,0.683-0.188,1.468-0.188,2.136v0.581c0,0.785,0.088,1.468,0.188,2.151
	c0.189,0.669,0.394,1.25,0.771,1.846c0.407,0.581,0.786,0.974,1.366,1.265C163.499,24.997,164.197,25.084,164.966,25.084z"/>
<path fill="#616161" d="M176.433,19.067l-1.744,1.744v5.348h-1.555V6.132h1.555v12.833l1.454-1.657l5.349-5.348h1.947l-5.93,5.944
	l6.511,8.167h-1.831L176.433,19.067z"/>
<path fill="#AAAAAA" d="M152.322,35.984c0,0.29,0,0.582-0.102,0.872c-0.087,0.291-0.204,0.494-0.291,0.683
	c-0.087,0.189-0.29,0.393-0.581,0.479c-0.203,0.116-0.494,0.204-0.684,0.204c-0.29,0-0.581,0-0.771-0.088
	c-0.203-0.116-0.406-0.29-0.58-0.493v0.493h-0.697V31.9h0.784v2.34c0.087-0.203,0.29-0.291,0.582-0.392
	c0.203-0.103,0.494-0.103,0.682-0.103c0.292,0,0.582,0,0.684,0.203c0.189,0.088,0.378,0.291,0.581,0.48
	c0.204,0.189,0.291,0.479,0.291,0.683C152.322,35.316,152.322,35.606,152.322,35.984L152.322,35.984z M151.538,35.897
	c0-0.204,0-0.494,0-0.581c0-0.204-0.103-0.407-0.189-0.494c-0.102-0.103-0.203-0.292-0.392-0.393
	c-0.189-0.103-0.292-0.103-0.582-0.103c-0.102,0-0.291,0-0.392,0c-0.089,0-0.189,0.103-0.292,0.103
	c-0.087,0-0.203,0.101-0.203,0.189c0,0.101-0.087,0.203-0.174,0.29v1.86c0,0.087,0.087,0.188,0.174,0.291
	c0,0.087,0.116,0.188,0.203,0.188c0.103,0,0.203,0.103,0.292,0.103c0.101,0,0.203,0,0.392,0c0.189,0,0.393,0,0.582-0.103
	c0.101-0.101,0.29-0.188,0.392-0.392c0.087-0.087,0.189-0.29,0.189-0.479C151.64,36.376,151.64,36.085,151.538,35.897
	L151.538,35.897L151.538,35.897z"/>
<path fill="#AAAAAA" d="M154.546,37.06l1.075-3.314h0.785l-1.743,5.059c0,0.101-0.117,0.203-0.204,0.392
	c0,0.102-0.087,0.189-0.29,0.393c-0.103,0.087-0.203,0.189-0.393,0.29c-0.103,0.088-0.291,0.088-0.581,0.088c0,0,0,0-0.103,0h-0.087
	h-0.103c0,0,0,0-0.101,0v-0.581l0,0l0,0l0,0l0,0c0.101,0,0.203,0,0.393,0c0.101,0,0.188,0,0.29-0.088
	c0.102,0,0.102-0.102,0.188-0.203c0-0.087,0.103-0.189,0.103-0.379l0.189-0.493l-1.541-4.273h0.771L154.546,37.06z"/>
<path fill="#AAAAAA" d="M163.601,37.35c0,0.087-0.102,0.188-0.189,0.291c-0.101,0.087-0.203,0.203-0.393,0.29
	c-0.188,0.087-0.392,0.203-0.581,0.203s-0.596,0.088-0.887,0.088c-0.377,0-0.668,0-0.959-0.204c-0.29-0.174-0.581-0.29-0.785-0.581
	c-0.203-0.189-0.378-0.581-0.493-0.871c-0.088-0.379-0.175-0.771-0.175-1.163v-0.494c0-0.479,0-0.872,0.087-1.163
	c0.088-0.378,0.291-0.581,0.494-0.871c0.189-0.204,0.479-0.393,0.771-0.582c0.29-0.102,0.581-0.204,1.061-0.204
	c0.407,0,0.581,0,0.887,0.103c0.291,0.102,0.479,0.188,0.684,0.393c0.189,0.203,0.29,0.378,0.479,0.581
	c0.102,0.203,0.188,0.494,0.188,0.684h-0.771c0-0.189-0.102-0.292-0.102-0.48c0-0.116-0.087-0.29-0.29-0.406
	c-0.087-0.087-0.29-0.175-0.379-0.291c-0.203,0-0.406-0.087-0.581-0.087c-0.306,0-0.493,0-0.697,0.087
	c-0.189,0.116-0.378,0.204-0.479,0.494c-0.102,0.203-0.188,0.392-0.291,0.684c0,0.29-0.102,0.581-0.102,0.871v0.48
	c0,0.406,0,0.596,0.102,0.886c0.103,0.291,0.189,0.48,0.393,0.684c0.088,0.188,0.291,0.291,0.582,0.479
	c0.29,0.189,0.493,0.103,0.668,0.103c0.203,0,0.406,0,0.596,0c0.103,0,0.291,0,0.393-0.103c0.087,0,0.188-0.101,0.188-0.101
	l0.103-0.087v-1.367h-1.367v-0.581h2.138v2.136h-0.291V37.35z"/>
<path fill="#AAAAAA" d="M164.284,35.897c0-0.291,0-0.581,0.086-0.887c0.117-0.291,0.204-0.48,0.407-0.684
	c0.188-0.188,0.378-0.378,0.582-0.479c0.188-0.103,0.58-0.189,0.871-0.189c0.292,0,0.582,0,0.872,0.189
	c0.291,0.101,0.494,0.29,0.582,0.479c0.203,0.203,0.29,0.495,0.393,0.684c0.101,0.189,0.101,0.596,0.101,0.887v0.087
	c0,0.29,0,0.582-0.101,0.872c-0.103,0.291-0.189,0.494-0.393,0.683c-0.188,0.189-0.378,0.393-0.582,0.479
	c-0.29,0.116-0.58,0.204-0.872,0.204c-0.291,0-0.581,0-0.871-0.204c-0.291-0.087-0.494-0.29-0.582-0.479
	c-0.102-0.188-0.29-0.479-0.407-0.683C164.284,36.667,164.284,36.274,164.284,35.897L164.284,35.897z M165.068,35.984
	c0,0.203,0,0.495,0.087,0.582c0,0.203,0.102,0.392,0.204,0.494c0.087,0.087,0.188,0.29,0.377,0.377
	c0.103,0.102,0.393,0.102,0.581,0.102c0.205,0,0.408,0,0.582-0.102c0.203-0.087,0.305-0.189,0.407-0.377
	c0.087-0.103,0.189-0.291,0.189-0.494c0-0.189,0.101-0.379,0.101-0.582v-0.087c0-0.204,0-0.407-0.101-0.581
	c0-0.204-0.103-0.407-0.189-0.597c-0.103-0.101-0.204-0.29-0.407-0.393c-0.174-0.087-0.377-0.087-0.582-0.087
	c-0.188,0-0.378,0-0.581,0.087c-0.087,0.103-0.29,0.203-0.377,0.393c-0.103,0.103-0.204,0.291-0.204,0.597
	C165.068,35.49,165.068,35.693,165.068,35.984L165.068,35.984z"/>
<path fill="#AAAAAA" d="M168.948,35.897c0-0.291,0-0.581,0.103-0.887c0.087-0.291,0.203-0.48,0.377-0.684
	c0.204-0.188,0.407-0.378,0.597-0.479c0.29-0.103,0.581-0.189,0.871-0.189c0.291,0,0.597,0,0.887,0.189
	c0.291,0.101,0.48,0.29,0.581,0.479c0.189,0.203,0.292,0.495,0.379,0.684c0.102,0.189,0.102,0.596,0.102,0.887v0.087
	c0,0.29,0,0.582-0.102,0.872c-0.087,0.291-0.189,0.494-0.379,0.683c-0.203,0.189-0.406,0.393-0.581,0.479
	c-0.29,0.116-0.596,0.204-0.887,0.204c-0.29,0-0.581,0-0.871-0.204c-0.189-0.087-0.479-0.29-0.597-0.479
	c-0.087-0.188-0.29-0.479-0.377-0.683C169.051,36.667,168.948,36.274,168.948,35.897L168.948,35.897z M169.733,35.984
	c0,0.203,0,0.495,0.102,0.582c0,0.203,0.087,0.392,0.189,0.494c0.101,0.087,0.188,0.29,0.392,0.377
	c0.087,0.102,0.379,0.102,0.582,0.102c0.188,0,0.378,0,0.581-0.102c0.203-0.087,0.291-0.189,0.378-0.377
	c0.116-0.103,0.203-0.291,0.203-0.494c0-0.189,0.103-0.379,0.103-0.582v-0.087c0-0.204,0-0.407-0.103-0.581
	c0-0.204-0.087-0.407-0.203-0.597c-0.087-0.101-0.175-0.29-0.378-0.393c-0.203-0.087-0.393-0.087-0.581-0.087
	c-0.203,0-0.393,0-0.582,0.087c-0.102,0.103-0.291,0.203-0.392,0.393c-0.103,0.103-0.189,0.291-0.189,0.597
	C169.733,35.49,169.733,35.693,169.733,35.984L169.733,35.984z"/>
<path fill="#AAAAAA" d="M173.715,35.897c0-0.407,0-0.581,0.103-0.887c0.087-0.291,0.203-0.48,0.378-0.684
	c0.115-0.188,0.29-0.378,0.596-0.479c0.29-0.103,0.479-0.189,0.683-0.189c0.188,0,0.582,0,0.669,0.087
	c0.203,0.103,0.406,0.203,0.582,0.393v-0.479h0.697v4.272c0,0.291,0,0.581-0.103,0.784c-0.101,0.189-0.188,0.379-0.392,0.582
	c-0.203,0.088-0.379,0.291-0.582,0.378c-0.203,0.103-0.494,0.103-0.784,0.103c-0.088,0-0.189,0-0.378,0
	c-0.103,0-0.29-0.103-0.495-0.103c-0.203,0-0.29-0.087-0.493-0.189c-0.175-0.101-0.291-0.188-0.378-0.392l0.378-0.479
	c0.115,0.101,0.203,0.189,0.29,0.29c0.116,0.103,0.203,0.103,0.306,0.189c0.103,0,0.189,0.102,0.29,0.102c0.103,0,0.189,0,0.291,0
	c0.189,0,0.393,0,0.479-0.102c0.103-0.087,0.291-0.087,0.393-0.189c0.102-0.101,0.188-0.189,0.188-0.393
	c0-0.087,0.116-0.29,0.116-0.494v-0.377c-0.116,0.203-0.305,0.29-0.595,0.377c-0.189,0.116-0.48,0.116-0.684,0.116
	c-0.29,0-0.479,0-0.669-0.203c-0.203-0.087-0.406-0.29-0.581-0.494c-0.116-0.189-0.306-0.479-0.407-0.668
	C173.715,36.566,173.613,36.274,173.715,35.897L173.715,35.897L173.715,35.897z M174.485,35.984c0,0.203,0,0.495,0,0.582
	c0,0.102,0.116,0.392,0.203,0.494c0.103,0.087,0.205,0.29,0.393,0.377c0.103,0.102,0.291,0.102,0.581,0.102c0.103,0,0.292,0,0.394,0
	c0.087,0,0.188-0.102,0.29-0.102c0.087,0,0.203-0.087,0.203-0.189c0-0.101,0.087-0.188,0.176-0.29v-2.049
	c0-0.087-0.089-0.189-0.176-0.29c0-0.089-0.116-0.089-0.203-0.189c-0.102-0.103-0.203-0.103-0.29-0.103c-0.102,0-0.204,0-0.394,0
	c-0.188,0-0.392,0-0.581,0.103c-0.101,0.101-0.29,0.189-0.393,0.393c-0.087,0.087-0.203,0.29-0.203,0.494
	C174.485,35.49,174.485,35.693,174.485,35.984L174.485,35.984z"/>
<path fill="#AAAAAA" d="M179.253,38.134h-0.771V31.9h0.771V38.134z"/>
<path fill="#AAAAAA" d="M182.188,38.222c-0.291,0-0.581,0-0.887-0.204c-0.291-0.087-0.48-0.29-0.581-0.479
	c-0.189-0.188-0.291-0.392-0.393-0.683c-0.087-0.29-0.087-0.582-0.087-0.872v-0.188c0-0.393,0-0.684,0.188-0.974
	c0.102-0.292,0.291-0.582,0.48-0.684c0.203-0.189,0.392-0.393,0.581-0.479c0.203-0.103,0.493-0.103,0.697-0.103
	c0.29,0,0.581,0,0.771,0.189c0.188,0.103,0.393,0.291,0.581,0.494c0.102,0.189,0.29,0.379,0.29,0.669
	c0.103,0.291,0.103,0.581,0.103,0.887v0.392h-3.022c0,0.189,0,0.379,0.101,0.582c0,0.188,0.103,0.291,0.291,0.479
	c0.189,0.189,0.306,0.189,0.393,0.291c0.203,0.103,0.393,0.103,0.581,0.103c0.291,0,0.494,0,0.684-0.204
	c0.188-0.087,0.393-0.29,0.479-0.479l0.494,0.393c-0.103,0.087-0.103,0.188-0.291,0.291c-0.102,0.087-0.203,0.203-0.393,0.29
	c-0.103,0.087-0.29,0.087-0.479,0.203C182.668,38.222,182.479,38.222,182.188,38.222z M182.087,34.327c-0.103,0-0.306,0-0.393,0.103
	c-0.087,0-0.203,0.101-0.393,0.189c-0.102,0.101-0.188,0.203-0.291,0.392c0,0.189-0.101,0.393-0.101,0.596h2.149l0,0
	c0-0.116,0-0.29-0.101-0.494c0-0.102-0.103-0.29-0.189-0.393c-0.102-0.101-0.203-0.189-0.291-0.29
	C182.479,34.327,182.378,34.327,182.087,34.327z"/>
</svg>