<?xml version="1.0" encoding="iso-8859-1"?><!-- Generator: Adobe Illustrator 16.0.0, SVG Export Plug-In . SVG Version: 6.00 Build 0) --><!DOCTYPE svg PUBLIC "-//W3C//DTD SVG 1.1//EN" "http://www.w3.org/Graphics/SVG/1.1/DTD/svg11.dtd"><svg version="1.1" id="svg2268" xmlns:svg="http://www.w3.org/2000/svg" xmlns="http://www.w3.org/2000/svg" xmlns:xlink="http://www.w3.org/1999/xlink" x="0px" y="0px" width="1023.693px" height="405.056px" viewBox="0.157 0 1023.693 405.056" style="enable-background:new 0.157 0 1023.693 405.056;" xml:space="preserve"><g id="layer1" transform="translate(-194.8708,-324.33481)"><path id="path19359" style="fill:#005A5F;" d="M1005.585,378.749c-2.394,0-4.408,0.84-5.42,2.483	c-1.047,1.698-0.885,3.884,0.227,6.096l26.868,46.511c0.045,0.091,0.045,0.145,0,0.226l-42.222,74.508	c-1.102,2.195-1.048,4.398,0,6.097c1.012,1.634,2.8,2.709,5.193,2.709h39.737c5.942,0,8.806-4.01,10.838-7.677	c0,0,41.291-73.027,42.899-75.863c-0.163-0.262-27.32-47.64-27.32-47.64c-1.978-3.522-4.967-7.451-11.063-7.451H1005.585z M830.603,465.676c-61.666,0-95.507,35.98-95.507,101.151v68.638c0,62.244,29.632,93.926,88.281,93.926	c47.424,0,85.825-18.541,88.507-19.869V586.244c0-3.829-2.718-6.548-6.547-6.548h-78.573c-3.829,0-6.548,2.719-6.548,6.548v31.61	c0,3.828,2.719,6.547,6.548,6.547h36.577c0.153,0,0.226,0.072,0.226,0.226v53.285c0,0.117-0.126,0.189-0.226,0.226	c-0.172,0.072-17.232,6.548-38.384,6.548c-27.942,0-41.544-17.34-41.544-52.833v-65.025c0-18.451,3.631-32.017,11.063-41.319	c8.138-10.178,20.438-15.127,37.932-15.127h7.677c25.396,0,45.012,5.672,57.575,9.708c1.95,0.624,3.738,0.298,4.967-0.677	c1.255-0.993,2.032-2.682,2.032-4.741v-30.255c0-3.423-1.68-5.346-6.773-7.902c-6.494-3.251-24.98-10.837-56.897-10.837H830.603z M203.375,469.062c-1.825,0-3.243,0.704-4.064,2.032c-0.895,1.436-0.885,3.423,0,5.193l64.574,117.633	c0.045,0.081,0.045,0.37,0,0.451l-68.187,123.504c-0.895,1.779-0.895,3.757,0,5.193c0.812,1.327,2.239,2.032,4.063,2.032h44.028	c5.039,0,6.837-2.827,8.806-6.773l45.156-83.089c0.045-0.091,0.127-0.226,0.226-0.226c0.108,0,0.181,0.135,0.227,0.226	c0,0,45.373,83.079,45.382,83.089c1.96,3.938,3.541,6.773,8.58,6.773h44.254c1.824,0,3.251-0.705,4.063-2.032	c0.452-0.723,0.678-1.608,0.678-2.483c0-0.886-0.234-1.815-0.678-2.71c-0.009-0.019-68.412-123.504-68.412-123.504	c-0.027-0.045,0-0.181,0-0.226s-0.027-0.189,0-0.226l64.8-117.633c0.442-0.894,0.678-1.825,0.678-2.709	c0-0.876-0.235-1.771-0.678-2.484c-0.821-1.328-2.249-2.032-4.063-2.032h-44.254c-5.04,0-6.837,2.836-8.806,6.773l-41.544,77.218	c-0.046,0.082-0.118,0.227-0.227,0.227c-0.099,0-0.181-0.145-0.226-0.227c0,0-41.535-77.218-41.544-77.218	c-1.644-3.306-3.378-6.773-8.806-6.773H203.375z M433.223,469.062c-3.82,0-6.548,2.728-6.548,6.548v242.943	c0,3.82,2.728,6.548,6.548,6.548h34.996c3.82,0,6.548-2.728,6.548-6.548V475.61c0-3.82-2.728-6.548-6.548-6.548H433.223z M526.698,469.062c-3.82,0-6.773,2.728-6.773,6.548v242.943c0,3.82,2.953,6.548,6.773,6.548h34.996c3.82,0,6.548-2.728,6.548-6.548	V572.019c0-0.126,0.108-0.198,0.226-0.226c0.117-0.036,0.172,0.117,0.226,0.226c0,0,75.863,146.299,75.863,146.309	c1.562,3.124,3.992,6.773,8.807,6.773h36.576c3.82,0,6.548-2.728,6.548-6.548V475.61c0-3.82-2.728-6.548-6.548-6.548h-34.996	c-3.82,0-6.548,2.728-6.548,6.548v146.308c0,0.126-0.108,0.198-0.226,0.226c-0.117,0.036-0.389,0.108-0.452,0	c0,0-75.863-146.299-75.863-146.308c-1.661-3.296-3.378-6.773-8.806-6.773H526.698z"/><path id="path19375" style="fill:#D4D600;" d="M1172.527,324.335c-5.934,0-8.508,3.739-10.639,7.568	c0,0-85.608,151.817-88.426,156.802c0.145,0.271,56.464,103.589,56.464,103.589c1.969,3.522,5.013,7.568,11.1,7.568h39.692	c2.394,0,4.264-0.903,5.274-2.538c1.057-1.697,1.03-3.938-0.081-6.141l-56.021-102.353c-0.054-0.081-0.054-0.181,0-0.262	l87.983-155.565c1.103-2.194,1.129-4.435,0.081-6.132c-1.012-1.635-2.89-2.538-5.283-2.538H1172.527z"/></g></svg>